<svg width="14" height="13" viewBox="0 0 14 13" fill="none" xmlns="http://www.w3.org/2000/svg">
<path d="M2.16033 2.67578L0.137184 0.906997L1.05223 0.106995L13.8628 11.3069L12.9478 12.107L10.8061 10.2346C9.70533 10.8448 8.39987 11.1982 7.00002 11.1982C3.51111 11.1982 0.60854 9.00343 0 6.10701C0.282546 4.76216 1.05963 3.56861 2.16033 2.67578ZM8.78415 8.46682L7.83689 7.63866C7.58345 7.74466 7.29966 7.80406 7.00002 7.80406C5.92795 7.80406 5.0589 7.04423 5.0589 6.10701C5.0589 5.84498 5.12681 5.59688 5.24807 5.3753L4.30084 4.54717C3.9621 4.99431 3.76483 5.53052 3.76483 6.10701C3.76483 7.66909 5.21327 8.93543 7.00002 8.93543C7.65935 8.93543 8.27267 8.76295 8.78415 8.46682ZM4.39517 1.44574C5.2019 1.16824 6.08059 1.01583 7.00002 1.01583C10.4889 1.01583 13.3915 3.21055 14 6.10701C13.798 7.06845 13.3432 7.95261 12.6981 8.7048L10.2007 6.52137C10.2234 6.38612 10.2352 6.24775 10.2352 6.10701C10.2352 4.54489 8.78673 3.27857 7.00002 3.27857C6.83897 3.27857 6.68071 3.28884 6.526 3.3087L4.39517 1.44574Z" fill="black"/>
</svg>
