<svg width="21" height="21" viewBox="0 0 21 21" fill="none" xmlns="http://www.w3.org/2000/svg">
<path d="M10.634 12.7717C11.9765 12.7717 13.0649 11.6833 13.0649 10.3408C13.0649 8.99828 11.9765 7.90994 10.634 7.90994C9.29146 7.90994 8.20312 8.99828 8.20312 10.3408C8.20312 11.6833 9.29146 12.7717 10.634 12.7717Z" fill="#959898"/>
<path d="M19.5529 9.67992C18.5479 8.12568 17.2439 6.80542 15.7824 5.86156C14.1655 4.81628 12.3803 4.26364 10.6202 4.26364C9.00519 4.26364 7.41715 4.72513 5.90014 5.63518C4.35312 6.56309 2.95157 7.91868 1.73424 9.66397C1.59681 9.86121 1.52113 10.0949 1.5168 10.3352C1.51247 10.5756 1.57969 10.8118 1.70993 11.0139C2.71304 12.5837 4.00406 13.9058 5.44283 14.8368C7.06278 15.8862 8.80617 16.418 10.6202 16.418C12.3944 16.418 14.1833 15.8699 15.7934 14.8334C17.2542 13.8925 18.5555 12.5673 19.5567 11.0002C19.6824 10.8028 19.7489 10.5735 19.7482 10.3395C19.7476 10.1055 19.6798 9.87656 19.5529 9.67992V9.67992ZM10.6331 13.9871C9.91194 13.9871 9.20697 13.7733 8.60734 13.3726C8.00771 12.9719 7.54035 12.4025 7.26437 11.7362C6.98839 11.0699 6.91618 10.3368 7.05688 9.62945C7.19757 8.92214 7.54485 8.27243 8.05479 7.76249C8.56473 7.25254 9.21444 6.90527 9.92176 6.76457C10.6291 6.62388 11.3622 6.69609 12.0285 6.97207C12.6948 7.24805 13.2642 7.7154 13.6649 8.31503C14.0656 8.91467 14.2794 9.61964 14.2794 10.3408C14.2783 11.3075 13.8938 12.2343 13.2102 12.9179C12.5266 13.6015 11.5998 13.986 10.6331 13.9871V13.9871Z" fill="#B8BABA"/>
</svg>
